<mxfile host="app.diagrams.net" modified="2021-07-18T06:53:53.854Z" agent="5.0 (X11)" etag="BN9iRMq94iUtM3WNYUO7" version="14.9.0" type="github">
  <diagram id="-7PYltsYjRVQ2mrx4WxT" name="Page-1">
    <mxGraphModel dx="2031" dy="1171" grid="1" gridSize="10" guides="1" tooltips="1" connect="1" arrows="1" fold="1" page="1" pageScale="1" pageWidth="1169" pageHeight="827" math="0" shadow="0">
      <root>
        <mxCell id="0" />
        <mxCell id="1" parent="0" />
        <mxCell id="yQzmOEpMGr1GONdV6GIF-91" value="" style="rounded=0;whiteSpace=wrap;html=1;fillColor=none;dashed=1;" vertex="1" parent="1">
          <mxGeometry x="520" y="500" width="640" height="280" as="geometry" />
        </mxCell>
        <mxCell id="yQzmOEpMGr1GONdV6GIF-56" value="" style="rounded=0;whiteSpace=wrap;html=1;fillColor=none;dashed=1;" vertex="1" parent="1">
          <mxGeometry x="520" y="120" width="640" height="360" as="geometry" />
        </mxCell>
        <mxCell id="yQzmOEpMGr1GONdV6GIF-24" value="" style="rounded=0;whiteSpace=wrap;html=1;fillColor=none;dashed=1;" vertex="1" parent="1">
          <mxGeometry x="40" y="120" width="400" height="360" as="geometry" />
        </mxCell>
        <mxCell id="yQzmOEpMGr1GONdV6GIF-1" value="ESP32" style="rounded=1;whiteSpace=wrap;html=1;" vertex="1" parent="1">
          <mxGeometry x="290" y="290" width="120" height="60" as="geometry" />
        </mxCell>
        <mxCell id="yQzmOEpMGr1GONdV6GIF-72" style="edgeStyle=entityRelationEdgeStyle;rounded=0;orthogonalLoop=1;jettySize=auto;html=1;exitX=1;exitY=0.5;exitDx=0;exitDy=0;entryX=0;entryY=0.5;entryDx=0;entryDy=0;" edge="1" parent="1" source="yQzmOEpMGr1GONdV6GIF-2" target="yQzmOEpMGr1GONdV6GIF-1">
          <mxGeometry relative="1" as="geometry" />
        </mxCell>
        <mxCell id="yQzmOEpMGr1GONdV6GIF-77" value="I2C" style="edgeLabel;html=1;align=center;verticalAlign=middle;resizable=0;points=[];" vertex="1" connectable="0" parent="yQzmOEpMGr1GONdV6GIF-72">
          <mxGeometry x="-0.0122" y="-1" relative="1" as="geometry">
            <mxPoint as="offset" />
          </mxGeometry>
        </mxCell>
        <mxCell id="yQzmOEpMGr1GONdV6GIF-2" value="Accelerometer" style="rounded=1;whiteSpace=wrap;html=1;" vertex="1" parent="1">
          <mxGeometry x="60" y="160" width="120" height="60" as="geometry" />
        </mxCell>
        <mxCell id="yQzmOEpMGr1GONdV6GIF-76" style="edgeStyle=entityRelationEdgeStyle;rounded=0;orthogonalLoop=1;jettySize=auto;html=1;exitX=1;exitY=0.5;exitDx=0;exitDy=0;" edge="1" parent="1" source="yQzmOEpMGr1GONdV6GIF-3">
          <mxGeometry relative="1" as="geometry">
            <mxPoint x="290" y="320" as="targetPoint" />
          </mxGeometry>
        </mxCell>
        <mxCell id="yQzmOEpMGr1GONdV6GIF-80" value="SPI" style="edgeLabel;html=1;align=center;verticalAlign=middle;resizable=0;points=[];" vertex="1" connectable="0" parent="yQzmOEpMGr1GONdV6GIF-76">
          <mxGeometry x="-0.0566" y="-3" relative="1" as="geometry">
            <mxPoint as="offset" />
          </mxGeometry>
        </mxCell>
        <mxCell id="yQzmOEpMGr1GONdV6GIF-3" value="GPS" style="rounded=1;whiteSpace=wrap;html=1;" vertex="1" parent="1">
          <mxGeometry x="60" y="400" width="120" height="60" as="geometry" />
        </mxCell>
        <mxCell id="yQzmOEpMGr1GONdV6GIF-74" style="edgeStyle=entityRelationEdgeStyle;rounded=0;orthogonalLoop=1;jettySize=auto;html=1;exitX=1;exitY=0.5;exitDx=0;exitDy=0;" edge="1" parent="1" source="yQzmOEpMGr1GONdV6GIF-4">
          <mxGeometry relative="1" as="geometry">
            <mxPoint x="290" y="320" as="targetPoint" />
          </mxGeometry>
        </mxCell>
        <mxCell id="yQzmOEpMGr1GONdV6GIF-78" value="I2C" style="edgeLabel;html=1;align=center;verticalAlign=middle;resizable=0;points=[];" vertex="1" connectable="0" parent="yQzmOEpMGr1GONdV6GIF-74">
          <mxGeometry x="-0.0703" y="-1" relative="1" as="geometry">
            <mxPoint as="offset" />
          </mxGeometry>
        </mxCell>
        <mxCell id="yQzmOEpMGr1GONdV6GIF-4" value="Air Quality Sensor" style="rounded=1;whiteSpace=wrap;html=1;" vertex="1" parent="1">
          <mxGeometry x="60" y="240" width="120" height="60" as="geometry" />
        </mxCell>
        <mxCell id="yQzmOEpMGr1GONdV6GIF-75" style="edgeStyle=entityRelationEdgeStyle;rounded=0;orthogonalLoop=1;jettySize=auto;html=1;exitX=1;exitY=0.5;exitDx=0;exitDy=0;" edge="1" parent="1" source="yQzmOEpMGr1GONdV6GIF-5">
          <mxGeometry relative="1" as="geometry">
            <mxPoint x="290" y="320" as="targetPoint" />
          </mxGeometry>
        </mxCell>
        <mxCell id="yQzmOEpMGr1GONdV6GIF-79" value="SPI" style="edgeLabel;html=1;align=center;verticalAlign=middle;resizable=0;points=[];" vertex="1" connectable="0" parent="yQzmOEpMGr1GONdV6GIF-75">
          <mxGeometry x="-0.0014" relative="1" as="geometry">
            <mxPoint as="offset" />
          </mxGeometry>
        </mxCell>
        <mxCell id="yQzmOEpMGr1GONdV6GIF-5" value="Temperature and Humidity Sensor" style="rounded=1;whiteSpace=wrap;html=1;" vertex="1" parent="1">
          <mxGeometry x="60" y="320" width="120" height="60" as="geometry" />
        </mxCell>
        <mxCell id="yQzmOEpMGr1GONdV6GIF-26" value="Hardware PCB" style="text;html=1;strokeColor=none;fillColor=none;align=center;verticalAlign=middle;whiteSpace=wrap;rounded=0;dashed=1;" vertex="1" parent="1">
          <mxGeometry x="50" y="130" width="100" height="20" as="geometry" />
        </mxCell>
        <mxCell id="yQzmOEpMGr1GONdV6GIF-28" value="OLED Screen" style="rounded=1;whiteSpace=wrap;html=1;" vertex="1" parent="1">
          <mxGeometry x="290" y="160" width="120" height="60" as="geometry" />
        </mxCell>
        <mxCell id="yQzmOEpMGr1GONdV6GIF-34" value="I2C" style="edgeStyle=elbowEdgeStyle;elbow=vertical;endArrow=classic;html=1;exitX=0.5;exitY=0;exitDx=0;exitDy=0;entryX=0.5;entryY=1;entryDx=0;entryDy=0;" edge="1" parent="1" source="yQzmOEpMGr1GONdV6GIF-1" target="yQzmOEpMGr1GONdV6GIF-28">
          <mxGeometry width="50" height="50" relative="1" as="geometry">
            <mxPoint x="340" y="350" as="sourcePoint" />
            <mxPoint x="390" y="300" as="targetPoint" />
          </mxGeometry>
        </mxCell>
        <mxCell id="yQzmOEpMGr1GONdV6GIF-39" style="edgeStyle=entityRelationEdgeStyle;rounded=0;orthogonalLoop=1;jettySize=auto;html=1;exitX=1;exitY=0.25;exitDx=0;exitDy=0;entryX=0;entryY=0.5;entryDx=0;entryDy=0;" edge="1" parent="1" source="yQzmOEpMGr1GONdV6GIF-35" target="yQzmOEpMGr1GONdV6GIF-38">
          <mxGeometry relative="1" as="geometry" />
        </mxCell>
        <mxCell id="yQzmOEpMGr1GONdV6GIF-40" value="MQTT Subscribe" style="edgeLabel;html=1;align=center;verticalAlign=middle;resizable=0;points=[];" vertex="1" connectable="0" parent="yQzmOEpMGr1GONdV6GIF-39">
          <mxGeometry x="0.0278" y="1" relative="1" as="geometry">
            <mxPoint as="offset" />
          </mxGeometry>
        </mxCell>
        <mxCell id="yQzmOEpMGr1GONdV6GIF-35" value="MQTT Broker (Mosquitto)" style="rounded=1;whiteSpace=wrap;html=1;strokeColor=#000000;fillColor=#ffffff;" vertex="1" parent="1">
          <mxGeometry x="560" y="290" width="120" height="60" as="geometry" />
        </mxCell>
        <mxCell id="yQzmOEpMGr1GONdV6GIF-36" value="" style="edgeStyle=elbowEdgeStyle;elbow=horizontal;endArrow=classic;html=1;exitX=1;exitY=0.5;exitDx=0;exitDy=0;entryX=0;entryY=0.5;entryDx=0;entryDy=0;" edge="1" parent="1" source="yQzmOEpMGr1GONdV6GIF-1" target="yQzmOEpMGr1GONdV6GIF-35">
          <mxGeometry width="50" height="50" relative="1" as="geometry">
            <mxPoint x="430" y="340" as="sourcePoint" />
            <mxPoint x="480" y="290" as="targetPoint" />
          </mxGeometry>
        </mxCell>
        <mxCell id="yQzmOEpMGr1GONdV6GIF-37" value="MQTT over TCP/IP" style="edgeLabel;html=1;align=center;verticalAlign=middle;resizable=0;points=[];" vertex="1" connectable="0" parent="yQzmOEpMGr1GONdV6GIF-36">
          <mxGeometry x="-0.0933" y="-3" relative="1" as="geometry">
            <mxPoint as="offset" />
          </mxGeometry>
        </mxCell>
        <mxCell id="yQzmOEpMGr1GONdV6GIF-46" style="edgeStyle=entityRelationEdgeStyle;rounded=0;orthogonalLoop=1;jettySize=auto;html=1;exitX=1;exitY=0.5;exitDx=0;exitDy=0;entryX=0;entryY=0.5;entryDx=0;entryDy=0;entryPerimeter=0;" edge="1" parent="1" source="yQzmOEpMGr1GONdV6GIF-38" target="yQzmOEpMGr1GONdV6GIF-45">
          <mxGeometry relative="1" as="geometry" />
        </mxCell>
        <mxCell id="yQzmOEpMGr1GONdV6GIF-47" value="INSERT" style="edgeLabel;html=1;align=center;verticalAlign=middle;resizable=0;points=[];" vertex="1" connectable="0" parent="yQzmOEpMGr1GONdV6GIF-46">
          <mxGeometry x="-0.2292" y="1" relative="1" as="geometry">
            <mxPoint as="offset" />
          </mxGeometry>
        </mxCell>
        <mxCell id="yQzmOEpMGr1GONdV6GIF-38" value="Node-RED" style="rounded=1;whiteSpace=wrap;html=1;strokeColor=#000000;fillColor=#ffffff;" vertex="1" parent="1">
          <mxGeometry x="780" y="240" width="120" height="60" as="geometry" />
        </mxCell>
        <mxCell id="yQzmOEpMGr1GONdV6GIF-48" style="edgeStyle=entityRelationEdgeStyle;rounded=0;orthogonalLoop=1;jettySize=auto;html=1;exitX=1;exitY=0.5;exitDx=0;exitDy=0;entryX=0;entryY=0.85;entryDx=0;entryDy=0;entryPerimeter=0;" edge="1" parent="1" source="yQzmOEpMGr1GONdV6GIF-41" target="yQzmOEpMGr1GONdV6GIF-45">
          <mxGeometry relative="1" as="geometry" />
        </mxCell>
        <mxCell id="yQzmOEpMGr1GONdV6GIF-49" value="INSERT" style="edgeLabel;html=1;align=center;verticalAlign=middle;resizable=0;points=[];" vertex="1" connectable="0" parent="yQzmOEpMGr1GONdV6GIF-48">
          <mxGeometry x="0.0076" relative="1" as="geometry">
            <mxPoint as="offset" />
          </mxGeometry>
        </mxCell>
        <mxCell id="yQzmOEpMGr1GONdV6GIF-41" value="Signal Processing " style="rounded=1;whiteSpace=wrap;html=1;strokeColor=#000000;fillColor=#ffffff;" vertex="1" parent="1">
          <mxGeometry x="780" y="340" width="120" height="60" as="geometry" />
        </mxCell>
        <mxCell id="yQzmOEpMGr1GONdV6GIF-43" style="edgeStyle=entityRelationEdgeStyle;rounded=0;orthogonalLoop=1;jettySize=auto;html=1;exitX=1;exitY=0.75;exitDx=0;exitDy=0;entryX=0;entryY=0.5;entryDx=0;entryDy=0;" edge="1" parent="1" source="yQzmOEpMGr1GONdV6GIF-35" target="yQzmOEpMGr1GONdV6GIF-41">
          <mxGeometry relative="1" as="geometry">
            <mxPoint x="690" y="330" as="sourcePoint" />
            <mxPoint x="810" y="330" as="targetPoint" />
          </mxGeometry>
        </mxCell>
        <mxCell id="yQzmOEpMGr1GONdV6GIF-44" value="MQTT Subscribe" style="edgeLabel;html=1;align=center;verticalAlign=middle;resizable=0;points=[];" vertex="1" connectable="0" parent="yQzmOEpMGr1GONdV6GIF-43">
          <mxGeometry x="0.0278" y="1" relative="1" as="geometry">
            <mxPoint as="offset" />
          </mxGeometry>
        </mxCell>
        <mxCell id="yQzmOEpMGr1GONdV6GIF-45" value="PostgreSQL Database" style="strokeWidth=1;html=1;shape=mxgraph.flowchart.database;whiteSpace=wrap;fillColor=#ffffff;" vertex="1" parent="1">
          <mxGeometry x="990" y="230" width="100" height="60" as="geometry" />
        </mxCell>
        <mxCell id="yQzmOEpMGr1GONdV6GIF-71" style="rounded=0;orthogonalLoop=1;jettySize=auto;html=1;exitX=0.5;exitY=1;exitDx=0;exitDy=0;entryX=0.5;entryY=0;entryDx=0;entryDy=0;entryPerimeter=0;edgeStyle=orthogonalEdgeStyle;curved=1;" edge="1" parent="1" source="yQzmOEpMGr1GONdV6GIF-51" target="yQzmOEpMGr1GONdV6GIF-55">
          <mxGeometry relative="1" as="geometry" />
        </mxCell>
        <mxCell id="yQzmOEpMGr1GONdV6GIF-81" value="INSERT" style="edgeLabel;html=1;align=center;verticalAlign=middle;resizable=0;points=[];" vertex="1" connectable="0" parent="yQzmOEpMGr1GONdV6GIF-71">
          <mxGeometry x="0.0864" y="1" relative="1" as="geometry">
            <mxPoint as="offset" />
          </mxGeometry>
        </mxCell>
        <mxCell id="yQzmOEpMGr1GONdV6GIF-87" style="edgeStyle=orthogonalEdgeStyle;curved=1;rounded=0;orthogonalLoop=1;jettySize=auto;html=1;exitX=0.5;exitY=1;exitDx=0;exitDy=0;entryX=0.5;entryY=0;entryDx=0;entryDy=0;startArrow=none;startFill=0;" edge="1" parent="1" source="yQzmOEpMGr1GONdV6GIF-51" target="yQzmOEpMGr1GONdV6GIF-86">
          <mxGeometry relative="1" as="geometry" />
        </mxCell>
        <mxCell id="yQzmOEpMGr1GONdV6GIF-88" value="&lt;div&gt;Some other realtime&lt;/div&gt;&lt;div&gt;communication to send&lt;/div&gt;&lt;div&gt;urgent events (???)&lt;br&gt;&lt;/div&gt;" style="edgeLabel;html=1;align=center;verticalAlign=middle;resizable=0;points=[];" vertex="1" connectable="0" parent="yQzmOEpMGr1GONdV6GIF-87">
          <mxGeometry x="0.2756" y="-7" relative="1" as="geometry">
            <mxPoint as="offset" />
          </mxGeometry>
        </mxCell>
        <mxCell id="yQzmOEpMGr1GONdV6GIF-51" value="Main Server Update Process" style="rounded=1;whiteSpace=wrap;html=1;strokeColor=#000000;strokeWidth=1;fillColor=#ffffff;" vertex="1" parent="1">
          <mxGeometry x="980" y="370" width="120" height="60" as="geometry" />
        </mxCell>
        <mxCell id="yQzmOEpMGr1GONdV6GIF-55" value="PostgreSQL Database" style="strokeWidth=1;html=1;shape=mxgraph.flowchart.database;whiteSpace=wrap;fillColor=#ffffff;" vertex="1" parent="1">
          <mxGeometry x="870" y="620" width="100" height="60" as="geometry" />
        </mxCell>
        <mxCell id="yQzmOEpMGr1GONdV6GIF-58" style="edgeStyle=entityRelationEdgeStyle;rounded=0;orthogonalLoop=1;jettySize=auto;html=1;exitX=1;exitY=0.5;exitDx=0;exitDy=0;entryX=0;entryY=0.15;entryDx=0;entryDy=0;entryPerimeter=0;" edge="1" parent="1" source="yQzmOEpMGr1GONdV6GIF-57" target="yQzmOEpMGr1GONdV6GIF-45">
          <mxGeometry relative="1" as="geometry" />
        </mxCell>
        <mxCell id="yQzmOEpMGr1GONdV6GIF-59" value="INSERT" style="edgeLabel;html=1;align=center;verticalAlign=middle;resizable=0;points=[];" vertex="1" connectable="0" parent="yQzmOEpMGr1GONdV6GIF-58">
          <mxGeometry x="0.0006" relative="1" as="geometry">
            <mxPoint as="offset" />
          </mxGeometry>
        </mxCell>
        <mxCell id="yQzmOEpMGr1GONdV6GIF-57" value="OBD2 Reader Process" style="rounded=1;whiteSpace=wrap;html=1;strokeColor=#000000;strokeWidth=1;fillColor=#ffffff;" vertex="1" parent="1">
          <mxGeometry x="780" y="140" width="120" height="60" as="geometry" />
        </mxCell>
        <mxCell id="yQzmOEpMGr1GONdV6GIF-61" style="edgeStyle=entityRelationEdgeStyle;rounded=0;orthogonalLoop=1;jettySize=auto;html=1;exitX=1;exitY=0.5;exitDx=0;exitDy=0;entryX=0;entryY=0.5;entryDx=0;entryDy=0;" edge="1" parent="1" source="yQzmOEpMGr1GONdV6GIF-60" target="yQzmOEpMGr1GONdV6GIF-57">
          <mxGeometry relative="1" as="geometry" />
        </mxCell>
        <mxCell id="yQzmOEpMGr1GONdV6GIF-62" value="Bluetooth" style="edgeLabel;html=1;align=center;verticalAlign=middle;resizable=0;points=[];" vertex="1" connectable="0" parent="yQzmOEpMGr1GONdV6GIF-61">
          <mxGeometry x="-0.3399" y="1" relative="1" as="geometry">
            <mxPoint as="offset" />
          </mxGeometry>
        </mxCell>
        <mxCell id="yQzmOEpMGr1GONdV6GIF-60" value="OBD2 Dongle" style="rounded=1;whiteSpace=wrap;html=1;strokeColor=#000000;strokeWidth=1;fillColor=#ffffff;" vertex="1" parent="1">
          <mxGeometry x="525" y="40" width="120" height="60" as="geometry" />
        </mxCell>
        <mxCell id="yQzmOEpMGr1GONdV6GIF-69" value="" style="endArrow=classic;html=1;entryX=0.5;entryY=0;entryDx=0;entryDy=0;exitX=0.5;exitY=1;exitDx=0;exitDy=0;exitPerimeter=0;" edge="1" parent="1" source="yQzmOEpMGr1GONdV6GIF-45" target="yQzmOEpMGr1GONdV6GIF-51">
          <mxGeometry width="50" height="50" relative="1" as="geometry">
            <mxPoint x="740" y="480" as="sourcePoint" />
            <mxPoint x="790" y="430" as="targetPoint" />
          </mxGeometry>
        </mxCell>
        <mxCell id="yQzmOEpMGr1GONdV6GIF-70" value="SELECT and DELETE" style="edgeLabel;html=1;align=center;verticalAlign=middle;resizable=0;points=[];" vertex="1" connectable="0" parent="yQzmOEpMGr1GONdV6GIF-69">
          <mxGeometry x="-0.3083" y="3" relative="1" as="geometry">
            <mxPoint as="offset" />
          </mxGeometry>
        </mxCell>
        <mxCell id="yQzmOEpMGr1GONdV6GIF-83" style="edgeStyle=entityRelationEdgeStyle;rounded=0;orthogonalLoop=1;jettySize=auto;html=1;exitX=1;exitY=0.5;exitDx=0;exitDy=0;entryX=0;entryY=0.5;entryDx=0;entryDy=0;entryPerimeter=0;startArrow=classic;startFill=1;" edge="1" parent="1" source="yQzmOEpMGr1GONdV6GIF-82" target="yQzmOEpMGr1GONdV6GIF-55">
          <mxGeometry relative="1" as="geometry" />
        </mxCell>
        <mxCell id="yQzmOEpMGr1GONdV6GIF-84" value="INSERT, SELECT, DELETE" style="edgeLabel;html=1;align=center;verticalAlign=middle;resizable=0;points=[];" vertex="1" connectable="0" parent="yQzmOEpMGr1GONdV6GIF-83">
          <mxGeometry x="0.0853" y="2" relative="1" as="geometry">
            <mxPoint as="offset" />
          </mxGeometry>
        </mxCell>
        <mxCell id="yQzmOEpMGr1GONdV6GIF-98" style="edgeStyle=orthogonalEdgeStyle;curved=1;rounded=0;orthogonalLoop=1;jettySize=auto;html=1;exitX=0;exitY=0.75;exitDx=0;exitDy=0;entryX=1;entryY=0.5;entryDx=0;entryDy=0;startArrow=none;startFill=0;endArrow=classic;endFill=1;" edge="1" parent="1" source="yQzmOEpMGr1GONdV6GIF-82" target="yQzmOEpMGr1GONdV6GIF-94">
          <mxGeometry relative="1" as="geometry" />
        </mxCell>
        <mxCell id="yQzmOEpMGr1GONdV6GIF-99" value="RESTful Response" style="edgeLabel;html=1;align=center;verticalAlign=middle;resizable=0;points=[];" vertex="1" connectable="0" parent="yQzmOEpMGr1GONdV6GIF-98">
          <mxGeometry x="0.1119" relative="1" as="geometry">
            <mxPoint as="offset" />
          </mxGeometry>
        </mxCell>
        <mxCell id="yQzmOEpMGr1GONdV6GIF-82" value="RESTful server" style="rounded=1;whiteSpace=wrap;html=1;strokeColor=#000000;strokeWidth=1;fillColor=#ffffff;" vertex="1" parent="1">
          <mxGeometry x="570" y="620" width="120" height="60" as="geometry" />
        </mxCell>
        <mxCell id="yQzmOEpMGr1GONdV6GIF-102" value="Event data (JSON)" style="edgeStyle=orthogonalEdgeStyle;curved=1;rounded=0;orthogonalLoop=1;jettySize=auto;html=1;exitX=0;exitY=0.75;exitDx=0;exitDy=0;entryX=1.017;entryY=0.892;entryDx=0;entryDy=0;entryPerimeter=0;startArrow=none;startFill=0;endArrow=classic;endFill=1;" edge="1" parent="1" source="yQzmOEpMGr1GONdV6GIF-85" target="yQzmOEpMGr1GONdV6GIF-94">
          <mxGeometry relative="1" as="geometry" />
        </mxCell>
        <mxCell id="yQzmOEpMGr1GONdV6GIF-85" value="Websocket Server" style="rounded=1;whiteSpace=wrap;html=1;strokeColor=#000000;strokeWidth=1;fillColor=#ffffff;" vertex="1" parent="1">
          <mxGeometry x="570" y="700" width="120" height="60" as="geometry" />
        </mxCell>
        <mxCell id="yQzmOEpMGr1GONdV6GIF-89" style="edgeStyle=orthogonalEdgeStyle;curved=1;rounded=0;orthogonalLoop=1;jettySize=auto;html=1;exitX=0.5;exitY=1;exitDx=0;exitDy=0;entryX=1;entryY=0.5;entryDx=0;entryDy=0;startArrow=none;startFill=0;" edge="1" parent="1" source="yQzmOEpMGr1GONdV6GIF-86" target="yQzmOEpMGr1GONdV6GIF-85">
          <mxGeometry relative="1" as="geometry" />
        </mxCell>
        <mxCell id="yQzmOEpMGr1GONdV6GIF-90" value="???" style="edgeLabel;html=1;align=center;verticalAlign=middle;resizable=0;points=[];" vertex="1" connectable="0" parent="yQzmOEpMGr1GONdV6GIF-89">
          <mxGeometry x="0.0752" y="-4" relative="1" as="geometry">
            <mxPoint as="offset" />
          </mxGeometry>
        </mxCell>
        <mxCell id="yQzmOEpMGr1GONdV6GIF-86" value="Something to pass on realtime events (maybe not needed)" style="rounded=1;whiteSpace=wrap;html=1;strokeColor=#000000;strokeWidth=1;fillColor=#ffffff;" vertex="1" parent="1">
          <mxGeometry x="1020" y="620" width="120" height="60" as="geometry" />
        </mxCell>
        <mxCell id="yQzmOEpMGr1GONdV6GIF-92" value="Raspberry PI" style="text;html=1;strokeColor=none;fillColor=none;align=center;verticalAlign=middle;whiteSpace=wrap;rounded=0;" vertex="1" parent="1">
          <mxGeometry x="530" y="130" width="90" height="20" as="geometry" />
        </mxCell>
        <mxCell id="yQzmOEpMGr1GONdV6GIF-93" value="Central Server" style="text;html=1;strokeColor=none;fillColor=none;align=center;verticalAlign=middle;whiteSpace=wrap;rounded=0;" vertex="1" parent="1">
          <mxGeometry x="530" y="510" width="90" height="20" as="geometry" />
        </mxCell>
        <mxCell id="yQzmOEpMGr1GONdV6GIF-96" style="edgeStyle=orthogonalEdgeStyle;curved=1;rounded=0;orthogonalLoop=1;jettySize=auto;html=1;exitX=1;exitY=0.158;exitDx=0;exitDy=0;startArrow=none;startFill=0;exitPerimeter=0;" edge="1" parent="1" source="yQzmOEpMGr1GONdV6GIF-94" target="yQzmOEpMGr1GONdV6GIF-82">
          <mxGeometry relative="1" as="geometry" />
        </mxCell>
        <mxCell id="yQzmOEpMGr1GONdV6GIF-97" value="HTTP Get Request" style="edgeLabel;html=1;align=center;verticalAlign=middle;resizable=0;points=[];" vertex="1" connectable="0" parent="yQzmOEpMGr1GONdV6GIF-96">
          <mxGeometry x="-0.1613" y="-8" relative="1" as="geometry">
            <mxPoint as="offset" />
          </mxGeometry>
        </mxCell>
        <mxCell id="yQzmOEpMGr1GONdV6GIF-100" style="edgeStyle=orthogonalEdgeStyle;curved=1;rounded=0;orthogonalLoop=1;jettySize=auto;html=1;exitX=1;exitY=0.75;exitDx=0;exitDy=0;entryX=0;entryY=0.25;entryDx=0;entryDy=0;startArrow=none;startFill=0;endArrow=classic;endFill=1;" edge="1" parent="1" source="yQzmOEpMGr1GONdV6GIF-94" target="yQzmOEpMGr1GONdV6GIF-85">
          <mxGeometry relative="1" as="geometry" />
        </mxCell>
        <mxCell id="yQzmOEpMGr1GONdV6GIF-101" value="Connection request" style="edgeLabel;html=1;align=center;verticalAlign=middle;resizable=0;points=[];" vertex="1" connectable="0" parent="yQzmOEpMGr1GONdV6GIF-100">
          <mxGeometry x="-0.1683" y="-9" relative="1" as="geometry">
            <mxPoint as="offset" />
          </mxGeometry>
        </mxCell>
        <mxCell id="yQzmOEpMGr1GONdV6GIF-94" value="Angular App" style="rounded=1;whiteSpace=wrap;html=1;strokeColor=#000000;strokeWidth=1;fillColor=#ffffff;" vertex="1" parent="1">
          <mxGeometry x="160" y="600" width="120" height="120" as="geometry" />
        </mxCell>
      </root>
    </mxGraphModel>
  </diagram>
</mxfile>
